<svg xmlns="http://www.w3.org/2000/svg" width="24" height="24" fill="none" viewBox="0 0 24 24">
  <rect width="10.9091" height="10.9091" fill="#050514" rx="5.45455"/>
  <path fill="#050514" fill-rule="evenodd" d="M18.5454 0c-3.0125 0-5.4546 2.44208-5.4546 5.45455v1.09109h3.2727c.6025 0 1.091.48842 1.091 1.09091v3.27255h5.4545c.6025 0 1.0909-.4884 1.0909-1.09092V1.09091C23.9999.488417 23.5115 0 22.909 0h-4.3636Zm-5.3455 17.4542c-.0715.3524-.1091.7173-.1091 1.0909 0 3.0124 2.4421 5.4545 5.4546 5.4545 3.0124 0 5.4545-2.4421 5.4545-5.4545 0-3.0125-2.4421-5.4546-5.4545-5.4546-.3736 0-.7385.0376-1.0909.1091v3.1636c0 .6025-.4885 1.091-1.091 1.091h-3.1636Zm-6.65426-4.3636H5.45455C2.44208 13.0906 0 15.5327 0 18.5452v4.3636c0 .6025.488417 1.0909 1.09091 1.0909h8.72727c.60252 0 1.09092-.4884 1.09092-1.0909v-5.4547H7.63655c-.60249 0-1.09091-.4884-1.09091-1.0909v-3.2726Z" clip-rule="evenodd"/>
  <style>@media (prefers-color-scheme:dark){rect,path{fill:white}}</style>
</svg>
