<svg xmlns="http://www.w3.org/2000/svg" width="169" height="44" fill="none"><rect width="16.8159" height="16.8159" y=".980103" fill="#050514" rx="8.40796"/><path fill="#050514" fill-rule="evenodd" d="M28.5872.980103c-4.6436 0-8.408 3.764367-8.408 8.407957v1.68164h5.0445c.9288 0 1.6816.7528 1.6816 1.6815v5.0448h-6.7261 15.1343c.9287 0 1.6816-.7529 1.6816-1.6816V2.66169c0-.92871-.7529-1.681587-1.6816-1.681587h-6.7263ZM20.3474 27.8855c-.1103.5434-.1682 1.1058-.1682 1.6816 0 4.6436 3.7644 8.408 8.408 8.408 4.6435 0 8.4079-3.7644 8.4079-8.408 0-4.6435-3.7644-8.4079-8.4079-8.4079-.5759 0-1.1383.0579-1.6816.1682v4.8766c0 .9287-.7529 1.6815-1.6816 1.6815h-4.8766Zm-10.2579-6.7263H8.40796C3.76437 21.1592 0 24.9236 0 29.5672v6.7263c0 .9287.752874 1.6816 1.68159 1.6816H15.1343c.9287 0 1.6816-.7529 1.6816-1.6816V21.1592v6.7263h-5.0448c-.9287 0-1.6816-.7528-1.6816-1.6815v-5.0448Z" clip-rule="evenodd"/><path fill="#050514" d="M45.4028 6.55398v2.80888h1.5277v8.16334H50.34V9.36286h2.6568V6.55398H50.34V5.6762c0-.94361.3099-1.66777 1.7047-1.66777h.9521V1.11177c-.5314-.08778-1.0628-.131667-1.5277-.131667-2.8117 0-4.5386 1.426387-4.5386 4.696097v.87778h-1.5277Zm16.7428 0c-.4649-.10972-.9077-.15361-1.3062-.15361-1.4834 0-2.4575.72416-2.9224 1.79944l-.1772-1.62389h-3.2102V17.5262h3.4095v-4.762c0-2.1725 1.1734-3.02828 3.1217-3.02828h1.0848V6.55398Zm.8021 5.46412c0 3.4672 2.5682 5.7714 6.1106 5.7714 3.5202 0 6.0884-2.3042 6.0884-5.7714 0-3.46718-2.5682-5.79329-6.0884-5.79329-3.5424 0-6.1106 2.32611-6.1106 5.79329Zm3.4316-.0219c0-1.6458 1.0849-2.74306 2.679-2.74306 1.5719 0 2.6567 1.09726 2.6567 2.74306 0 1.6678-1.0848 2.765-2.6567 2.765-1.5941 0-2.679-1.0972-2.679-2.765Zm14.1535 5.53v-5.8811c0-1.84335.9963-2.37002 1.9705-2.37002 1.0848 0 1.7933.65834 1.7933 2.01892v6.2322h3.4095v-5.8811c0-1.8653.9742-2.39196 1.9483-2.39196 1.0849 0 1.8155.65833 1.8155 2.04086v6.2322h3.4095v-7.1758c0-2.5017-1.417-4.14753-4.273-4.14753-1.594 0-2.9003.76805-3.4759 1.9311-.6421-1.16305-1.7048-1.9311-3.3653-1.9311-1.594 0-2.6789.72416-3.2324 1.49222l-.2214-1.14111h-3.1881V17.5262h3.4095ZM53.3953 37.7093c4.0958 0 7.1511-2.3919 7.7267-6.0127h-3.7194c-.4428 1.6019-1.9262 2.5894-3.9409 2.5894-2.6346 0-4.273-1.9091-4.273-4.9594 0-3.0942 1.6162-4.9595 4.273-4.9595 1.9704 0 3.3652.9217 3.8523 2.5456h3.7859c-.5092-3.6428-3.4538-5.9689-7.5497-5.9689-4.8928 0-8.1474 3.3356-8.1474 8.4047 0 5.135 3.0775 8.3608 7.9925 8.3608Zm9.107-5.7713c0 3.4672 2.5682 5.7713 6.1106 5.7713 3.5202 0 6.0884-2.3041 6.0884-5.7713 0-3.4673-2.5682-5.7934-6.0884-5.7934-3.5424 0-6.1106 2.3261-6.1106 5.7934Zm3.4317-.022c0-1.6458 1.0848-2.743 2.6789-2.743 1.5719 0 2.6567 1.0972 2.6567 2.743 0 1.6678-1.0848 2.765-2.6567 2.765-1.5941 0-2.6789-1.0972-2.6789-2.765Zm14.1535 5.53v-5.8811c0-1.8433.9962-2.37 1.9704-2.37 1.0848 0 1.7933.6583 1.7933 2.0189v6.2322h3.4095v-5.8811c0-1.8653.9742-2.3919 1.9483-2.3919 1.0849 0 1.8155.6583 1.8155 2.0408v6.2322h3.4095v-7.1758c0-2.5017-1.4169-4.1475-4.273-4.1475-1.594 0-2.9003.768-3.4759 1.9311-.6421-1.1631-1.7048-1.9311-3.3652-1.9311-1.5941 0-2.6789.7242-3.2324 1.4922l-.2214-1.1411h-3.1882V37.446h3.4096Zm20.1935 0v-5.8811c0-1.8433.997-2.37 1.971-2.37 1.085 0 1.793.6583 1.793 2.0189v6.2322h3.41v-5.8811c0-1.8653.974-2.3919 1.948-2.3919 1.085 0 1.815.6583 1.815 2.0408v6.2322h3.41v-7.1758c0-2.5017-1.417-4.1475-4.273-4.1475-1.594 0-2.9.768-3.476 1.9311-.642-1.1631-1.705-1.9311-3.365-1.9311-1.594 0-2.679.7242-3.233 1.4922l-.221-1.1411h-3.1882V37.446h3.4092Zm24.135-10.9722v5.7055c0 1.7995-.598 2.5456-2.059 2.5456-1.395 0-2.015-.79-2.015-2.5894v-5.6617h-3.409v6.8905c0 2.6992 1.55 4.367 4.073 4.367 1.329 0 2.702-.6145 3.388-1.5142l.221 1.2289h3.211V26.4738h-3.41Zm9.378 10.9722v-6.0128c0-1.3605.863-2.2383 2.214-2.2383 1.173 0 1.948.8997 1.948 2.2822v5.9689h3.409v-6.7808c0-2.8747-1.527-4.5425-4.162-4.5425-1.439 0-2.701.5486-3.387 1.4922l-.222-1.1411h-3.21V37.446h3.41Zm11.699-12.6839c1.063 0 1.926-.8558 1.926-1.9311 0-1.0752-.863-1.9091-1.926-1.9091-1.085 0-1.948.8339-1.948 1.9091 0 1.0753.863 1.9311 1.948 1.9311Zm-1.682 12.6839h3.409V26.4738h-3.409V37.446Zm10.439 0v-8.1633h3.781v-2.8089h-3.781v-3.4014h-3.409v3.4014h-2.104v2.8089h2.104v8.1633h3.409Z"/><path fill="#050514" d="M157 42.7127c.664.1975 1.439.3072 2.258.3072 1.949 0 3.189-.9436 4.118-3.182L169 26.4738h-3.542l-2.679 7.0442-2.414-7.0442h-3.653l4.45 11.3453-.199.5266c-.443 1.185-.93 1.5361-2.081 1.5361H157v2.8309Z"/></svg>
